#!OML:ASF H:\charlestonDancing\Project 1\Capture day 1\Session 1\femaleDancer.ASF
:FULLY-SPECIFIED
:DEGREES
35
root -14.7811 17.9714 -0.0882664 369.312 -79.7824 -353.21
lowerback 14.5384 0.302731 1.12452
upperback 0.484257 0.479758 -0.84343
thorax -7.63555 0.158403 -1.63328
lowerneck -1.34343 0.44326 4.15304
upperneck -1.87517 0.495841 -3.71059
head -0.333824 0.227934 -1.86036
rclavicle -4.47266e-016 2.38542e-015
rhumerus -72.2623 -42.902 -0.936813
rradius 25.4099
rwrist 23.0838
rhand -33.4727 -59.9384
rfingers 7.12502
rthumb -6.67054 270.187
lclavicle -4.47266e-016 2.38542e-015
lhumerus -58.2524 27.9631 19.9766
lradius 23.8821
lwrist -16.467
lhand -22.6111 17.9818
lfingers 7.12502
lthumb 3.81868 47.9273
rfemur -39.0668 -16.1213 34.4835
rtibia 39.1116
rfoot -10.1762 -12.3196
rtoes -4.56834
lfemur -18.1458 15.1879 -26.468
ltibia 47.1833
lfoot -0.0702626 -0.235453
ltoes -23.0475
36
root -14.7313 17.8789 -0.06559 369.51 -80.3787 -352.488
lowerback 14.0268 0.29149 0.814677
upperback 0.156832 0.423735 -0.790678
thorax -7.70474 0.145176 -1.38741
lowerneck -1.48277 0.692077 4.28597
upperneck -2.17622 0.812897 -3.75961
head -0.390064 0.382801 -1.89993
rclavicle -8.22472e-015 -1.09332e-015
rhumerus -70.7826 -43.7252 -3.37651
rradius 25.2625
rwrist 20.5711
rhand -32.9198 -59.3439
rfingers 7.12502
rthumb -6.13677 270.765
lclavicle -8.22472e-015 -1.09332e-015
lhumerus -57.7505 26.6453 25.2256
lradius 25.5767
lwrist -7.95582
lhand -22.1804 17.9149
lfingers 7.12502
lthumb 4.23459 47.8525
rfemur -41.4801 -17.258 36.2168
rtibia 40.3036
rfoot -11.6943 -13.9055
rtoes 3.53121
lfemur -16.7791 16.2817 -28.0008
ltibia 43.4871
lfoot -6.90918 0.0980518
ltoes -15.6456
37
root -14.6811 17.7965 -0.0488256 369.512 -80.8115 -351.887
lowerback 13.7781 0.22105 0.496676
upperback -0.146647 0.287983 -0.741294
thorax -7.89676 0.0929319 -1.12747
lowerneck -1.23332 0.938813 4.46509
upperneck -2.59733 1.14344 -3.66095
head -0.549364 0.546548 -1.90312
rclavicle -2.31833e-014 -1.963e-014
rhumerus -68.7751 -44.3915 -6.79752
rradius 25.4655
rwrist 18.1602
rhand -31.6642 -57.5646
rfingers 7.12502
rthumb -4.9245 272.513
lclavicle -2.31833e-014 -1.963e-014
lhumerus -57.4763 25.9185 29.7392
lradius 27.3927
lwrist -2.51955
lhand -21.4853 17.5627
lfingers 7.12502
lthumb 4.90576 47.4859
rfemur -42.8821 -17.482 37.0134
rtibia 41.3708
rfoot -13.9143 -14.4252
rtoes 9.24849
lfemur -15.3162 16.4889 -29.0941
ltibia 40.2458
lfoot -11.1808 1.36468
ltoes -34.2668
38
root -14.622 17.6682 -0.0427859 369.354 -81.0662 -351.483
lowerback 13.7394 0.0790021 0.127727
upperback -0.342789 0.0486374 -0.666466
thorax -8.09205 -0.00624306 -0.791201
lowerneck -0.740836 1.18786 4.65966
upperneck -3.09472 1.4915 -3.46925
head -0.77405 0.718815 -1.88375
rclavicle -4.37326e-015 -2.12203e-014
rhumerus -65.8781 -44.7232 -11.6879
rradius 26.3919
rwrist 15.4083
rhand -29.742 -56.7178
rfingers 7.12502
rthumb -3.06831 273.325
lclavicle -4.37326e-015 -2.12203e-014
lhumerus -57.1073 25.6449 33.92
lradius 29.1468
lwrist -0.262953
lhand -21.3918 17.2328
lfingers 7.12502
lthumb 4.99604 47.1539
rfemur -43.8505 -16.8311 36.9123
rtibia 42.2212
rfoot -14.2931 -15.0983
rtoes 4.41765
lfemur -14.1614 15.465 -29.4246
ltibia 37.8332
lfoot -14.8801 -0.952157
ltoes -18.6431
39
root -14.5604 17.5602 -0.0448178 371.168 -80.9803 -353.519
lowerback 14.0788 -0.242456 0.124322
upperback -0.432812 -0.360864 -0.455472
thorax -8.38636 -0.199236 -0.479726
lowerneck -0.353948 1.48046 4.95554
upperneck -3.25399 1.90093 -3.427
head -0.871075 0.922258 -1.92982
rclavicle -2.75969e-015 2.60905e-015
rhumerus -62.2407 -44.5834 -17.6942
rradius 27.7792
rwrist 12.383
rhand -29.5385 -56.4062
rfingers 7.12502
rthumb -2.87175 273.633
lclavicle -2.75969e-015 2.60905e-015
lhumerus -56.4612 25.4605 38.1738
lradius 30.823
lwrist 0.0973545
lhand -22.123 16.9722
lfingers 7.12502
lthumb 4.28997 46.9088
rfemur -43.836 -15.7609 36.4038
rtibia 42.9428
rfoot -14.8557 -14.89
rtoes 0.865724
lfemur -13.1229 14.114 -28.9818
ltibia 36.5529
lfoot -17.2331 -2.60813
ltoes -14.4138
